<svg width="113" height="36" viewBox="0 0 113 36" fill="none" xmlns="http://www.w3.org/2000/svg">
<path d="M30.4766 24.6875C30.4766 26.1406 30.2891 27.4219 29.9141 28.5312C29.5547 29.6406 29.0391 30.6016 28.3672 31.4141C27.7109 32.2266 26.9297 32.9062 26.0234 33.4531C25.1172 34 24.125 34.4375 23.0469 34.7656C21.9844 35.0938 20.8516 35.3281 19.6484 35.4688C18.4609 35.6094 17.25 35.6797 16.0156 35.6797C14.3906 35.6797 12.8906 35.5547 11.5156 35.3047C10.1406 35.0703 8.84375 34.6953 7.625 34.1797C6.42188 33.6484 5.25781 32.9688 4.13281 32.1406C3.02344 31.3125 1.91406 30.3047 0.804688 29.1172L5.58594 24.2656C6.02344 25.3438 6.625 26.3438 7.39062 27.2656C8.15625 28.1719 8.99219 28.9531 9.89844 29.6094C10.8203 30.2656 11.7734 30.7812 12.7578 31.1562C13.7422 31.5312 14.6719 31.7188 15.5469 31.7188C16.5781 31.7188 17.5469 31.6484 18.4531 31.5078C19.3594 31.3516 20.1484 31.1016 20.8203 30.7578C21.4922 30.4141 22.0156 29.9609 22.3906 29.3984C22.7812 28.8203 22.9766 28.1016 22.9766 27.2422C22.9766 26.5859 22.8281 26.0234 22.5312 25.5547C22.2344 25.0859 21.8438 24.6875 21.3594 24.3594C20.8906 24.0156 20.3516 23.7266 19.7422 23.4922C19.1328 23.2578 18.5078 23.0625 17.8672 22.9062C17.2422 22.7344 16.625 22.5859 16.0156 22.4609C15.4062 22.3203 14.8672 22.1797 14.3984 22.0391C13.4766 21.7734 12.5156 21.4922 11.5156 21.1953C10.5156 20.8828 9.53125 20.5312 8.5625 20.1406C7.59375 19.75 6.67188 19.3047 5.79688 18.8047C4.9375 18.2891 4.17969 17.6875 3.52344 17C2.86719 16.2969 2.34375 15.4922 1.95312 14.5859C1.5625 13.6641 1.36719 12.6094 1.36719 11.4219C1.36719 10 1.53906 8.74219 1.88281 7.64844C2.24219 6.53906 2.74219 5.57813 3.38281 4.76562C4.02344 3.95312 4.78125 3.27344 5.65625 2.72656C6.53125 2.16406 7.49219 1.71875 8.53906 1.39062C9.58594 1.04687 10.6953 0.804688 11.8672 0.664062C13.0547 0.507812 14.2656 0.429688 15.5 0.429688C17.1875 0.429688 18.7188 0.585938 20.0938 0.898438C21.4844 1.21094 22.7656 1.65625 23.9375 2.23438C25.1094 2.8125 26.1797 3.50781 27.1484 4.32031C28.1328 5.11719 29.0547 6.00781 29.9141 6.99219L25.1328 11.8438C24.7578 10.7188 24.2344 9.70313 23.5625 8.79688C22.9062 7.89062 22.1719 7.11719 21.3594 6.47656C20.5469 5.82031 19.6953 5.32031 18.8047 4.97656C17.9141 4.61719 17.0547 4.4375 16.2266 4.4375C15.1484 4.4375 14.1562 4.51562 13.25 4.67188C12.3438 4.8125 11.5625 5.05469 10.9062 5.39844C10.2656 5.72656 9.76562 6.17969 9.40625 6.75781C9.04688 7.32031 8.86719 8.02344 8.86719 8.86719C8.86719 9.53906 9 10.1094 9.26562 10.5781C9.53125 11.0469 9.88281 11.4453 10.3203 11.7734C10.7734 12.1016 11.2812 12.375 11.8438 12.5938C12.4062 12.7969 12.9844 12.9766 13.5781 13.1328C14.1875 13.2891 14.7812 13.4297 15.3594 13.5547C15.9531 13.6641 16.4922 13.7891 16.9766 13.9297C17.9141 14.1953 18.8984 14.4766 19.9297 14.7734C20.9609 15.0703 21.9766 15.4219 22.9766 15.8281C23.9766 16.2188 24.9297 16.6719 25.8359 17.1875C26.7422 17.7031 27.5391 18.3203 28.2266 19.0391C28.9141 19.7422 29.4609 20.5625 29.8672 21.5C30.2734 22.4219 30.4766 23.4844 30.4766 24.6875Z" fill="#0057FF"/>
<path d="M49.8134 35H41.3056L32.4463 1.25H41.9384L47.54 25.2031L52.5088 1.25H61.04L66.4775 25.8125L72.5947 1.25H78.3369L68.5166 35H59.9853L55.2275 13.4375L49.8134 35Z" fill="black"/>
<path d="M91.5097 1.25C91.0878 2.51562 90.7206 3.82812 90.4081 5.1875C90.0956 6.53125 89.8378 7.88281 89.6347 9.24219C89.4316 10.5859 89.2753 11.9141 89.1659 13.2266C89.0722 14.5391 89.0253 15.7812 89.0253 16.9531C89.0253 17.8125 89.0253 18.7812 89.0253 19.8594C89.0409 20.9219 89.1034 22.0078 89.2128 23.1172C89.3378 24.2266 89.5331 25.3125 89.7988 26.375C90.0644 27.4219 90.455 28.3594 90.9706 29.1875C91.5019 30.0156 92.1738 30.6797 92.9863 31.1797C93.8144 31.6797 94.8378 31.9297 96.0566 31.9297C97.1347 31.9297 98.0566 31.75 98.8222 31.3906C99.6034 31.0156 100.26 30.5156 100.791 29.8906C101.338 29.2656 101.768 28.5469 102.08 27.7344C102.408 26.9219 102.658 26.0703 102.83 25.1797C103.018 24.2891 103.135 23.3906 103.182 22.4844C103.244 21.5625 103.275 20.6875 103.275 19.8594V1.25H112.58V18.4062C112.58 20.8594 112.189 23.1406 111.408 25.25C110.627 27.3594 109.525 29.1953 108.103 30.7578C106.682 32.3047 104.963 33.5234 102.947 34.4141C100.932 35.2891 98.6972 35.7266 96.2441 35.7266C94.5566 35.7266 92.9863 35.4844 91.5331 35C90.08 34.5312 88.7441 33.8828 87.5253 33.0547C86.3222 32.2109 85.2441 31.2188 84.2909 30.0781C83.3534 28.9219 82.5644 27.6641 81.9238 26.3047C81.2988 24.9453 80.8222 23.5156 80.4941 22.0156C80.1659 20.5 80.0175 18.9688 80.0488 17.4219V16.9531C80.0644 15.7031 80.1894 14.4141 80.4238 13.0859C80.6581 11.7422 80.9706 10.3984 81.3613 9.05469C81.7675 7.71094 82.2519 6.38281 82.8144 5.07031C83.3769 3.74219 84.0019 2.46875 84.6894 1.25H91.5097Z" fill="#FF9900"/>
</svg>
